<svg width="104" height="17" viewBox="0 0 104 17" fill="none" xmlns="http://www.w3.org/2000/svg">
<path d="M10.1577 5.93511C9.90306 5.51912 9.47865 5.26953 8.99765 5.26953C8.51665 5.26953 8.09223 5.51912 7.83758 5.93511L5.57404 9.76219C5.31939 10.1782 5.31939 10.6496 5.57404 11.0933C5.82869 11.5093 6.2531 11.7589 6.73411 11.7589H11.2329C11.7139 11.7589 12.1383 11.5093 12.393 11.0933C12.6476 10.6774 12.6476 10.2059 12.393 9.76219L10.1577 5.93511ZM11.0631 10.3168C11.0348 10.3723 10.9782 10.4 10.8934 10.4H8.96935H7.04534C6.96046 10.4 6.90387 10.3723 6.87558 10.3168C6.84728 10.2614 6.84728 10.1782 6.87558 10.1227L7.83758 8.4865L8.79959 6.85028C8.82788 6.79482 8.88447 6.76708 8.96935 6.76708C9.05424 6.76708 9.11082 6.79482 9.13912 6.85028L10.1011 8.4865L11.0631 10.1227C11.1197 10.2059 11.1197 10.2614 11.0631 10.3168Z" fill="#F87424"/>
<path d="M12.4778 4.63133C11.7422 3.38337 10.4689 2.66232 8.99765 2.66232C7.52635 2.66232 6.2531 3.38337 5.51745 4.63133L3.28221 8.43068C2.54656 9.67864 2.54656 11.1207 3.28221 12.3964C4.01786 13.6444 5.2911 14.3654 6.7624 14.3654H11.2612C12.7325 14.3654 14.0057 13.6444 14.7414 12.3964C15.477 11.1485 15.477 9.70637 14.7414 8.43068L12.4778 4.63133ZM13.5813 11.7308C13.1003 12.5628 12.2515 13.062 11.2612 13.062H6.7624C5.7721 13.062 4.92327 12.5905 4.44227 11.7308C3.96127 10.8989 3.96127 9.92823 4.44227 9.09625L6.67752 5.29691C7.15852 4.46493 8.00735 3.96575 8.99765 3.96575C9.98795 3.96575 10.8368 4.4372 11.3178 5.29691L13.553 9.09625C14.0623 9.92823 14.0623 10.8989 13.5813 11.7308Z" fill="#F87424"/>
<path d="M14.8262 3.30016C13.5812 1.1925 11.4592 0 8.99757 0C6.53597 0 4.4139 1.1925 3.16896 3.30016L0.933711 7.09951C-0.311237 9.20718 -0.311237 11.5922 0.933711 13.6998C2.17866 15.8075 4.30073 17 6.76233 17H11.2611C13.7227 17 15.8448 15.8075 17.0897 13.6998C18.3347 11.5922 18.3347 9.20718 17.0897 7.09951L14.8262 3.30016ZM15.9014 13.062C14.9111 14.7259 13.2134 15.6966 11.2328 15.6966H6.76233C4.78173 15.6966 3.08407 14.7259 2.09378 13.062C1.10348 11.398 1.10348 9.45677 2.09378 7.79282L4.32902 3.99347C5.31932 2.32953 7.01698 1.35889 8.99757 1.35889C10.9782 1.35889 12.6758 2.32953 13.6661 3.99347L15.9014 7.79282C16.8917 9.45677 16.8917 11.3703 15.9014 13.062Z" fill="#F87424"/>
<path d="M101.178 10.2911C100.668 9.83782 99.9033 9.52616 98.9117 9.2995C98.1467 9.12951 97.6084 8.93118 97.2684 8.70452C96.9851 8.50619 96.8434 8.25119 96.8434 7.96786C96.8434 7.62787 96.9851 7.34454 97.2401 7.14622C97.5234 6.91955 97.9484 6.80622 98.4867 6.80622C99.0817 6.80622 99.535 6.94789 99.8467 7.20288C100.158 7.45788 100.272 7.79787 100.3 8.22286C100.3 8.36452 100.413 8.42119 100.413 8.42119H101.802C101.802 8.42119 101.915 8.39286 101.943 8.22286C102 7.48621 101.632 6.83456 101.037 6.32457C100.413 5.78624 99.5634 5.53125 98.515 5.53125C97.5517 5.53125 96.7301 5.75791 96.1351 6.21124C95.5118 6.69289 95.2001 7.28788 95.2001 7.96786C95.2001 8.64785 95.5118 9.2145 96.0784 9.6395C96.6451 10.0645 97.4101 10.3761 98.4017 10.6028C99.1384 10.7728 99.6767 10.9711 99.96 11.1978C100.13 11.3395 100.243 11.4811 100.3 11.6511C100.47 12.1044 100.243 12.6144 99.79 12.8411C99.4784 13.0111 99.0817 13.0961 98.5717 13.0961C98.0051 13.0961 97.4951 12.9828 97.1267 12.7278C96.7584 12.5011 96.6168 12.1611 96.5884 11.6795C96.5884 11.4811 96.4468 11.4811 96.4468 11.4811H95.1435C95.1435 11.4811 94.9451 11.5095 94.9451 11.7078C94.9168 12.5011 95.2851 13.1811 96.0501 13.6627C96.7868 14.1444 97.6367 14.3711 98.5717 14.3711C99.5634 14.3711 100.413 14.1444 101.037 13.7194C101.688 13.2661 102.028 12.6711 102.028 11.9628C102 11.3111 101.745 10.7445 101.178 10.2911Z" fill="white"/>
<path d="M92.3668 10.3195C91.8568 9.86614 91.0918 9.55449 90.1002 9.32782C89.3352 9.15783 88.7969 8.9595 88.4569 8.73284C88.1736 8.53451 88.0319 8.27951 88.0319 7.99618C88.0319 7.65619 88.1736 7.37286 88.4285 7.17454C88.7119 6.94787 89.1369 6.83454 89.6752 6.83454C90.2702 6.83454 90.7235 6.97621 91.0352 7.2312C91.3468 7.4862 91.4601 7.82619 91.4885 8.25118C91.4885 8.39284 91.6018 8.44951 91.6018 8.44951H92.9901C92.9901 8.44951 93.1034 8.42118 93.1318 8.25118C93.1884 7.51453 92.8201 6.86288 92.2251 6.35289C91.6018 5.81456 90.7518 5.55957 89.7035 5.55957C88.7402 5.55957 87.9186 5.78623 87.3236 6.23956C86.7003 6.72121 86.3886 7.3162 86.3886 7.99618C86.3886 8.67617 86.7003 9.24282 87.2669 9.66782C87.8336 10.0928 88.5985 10.4045 89.5902 10.6311C90.3268 10.8011 90.8652 10.9995 91.1485 11.2261C91.3185 11.3678 91.4318 11.5094 91.4885 11.6794C91.6585 12.1328 91.4318 12.6428 90.9785 12.8694C90.6668 13.0394 90.2702 13.1244 89.7602 13.1244C89.1935 13.1244 88.6835 13.0111 88.3152 12.7561C87.9469 12.5294 87.8052 12.1894 87.7769 11.7078C87.7769 11.5094 87.6352 11.5094 87.6352 11.5094H86.3319C86.3319 11.5094 86.1336 11.5378 86.1336 11.7361C86.1053 12.5294 86.4736 13.2094 87.2386 13.6911C87.9752 14.1727 88.8252 14.3994 89.7602 14.3994C90.7518 14.3994 91.6018 14.1727 92.2251 13.7477C92.8768 13.2944 93.2168 12.6994 93.2168 11.9911C93.1884 11.3394 92.9051 10.7728 92.3668 10.3195Z" fill="white"/>
<path d="M81.1755 14.286C80.0139 14.286 79.0506 13.8894 78.3706 13.1244C77.6623 12.3311 77.3223 11.3394 77.3223 10.0928V9.75281C77.3223 8.56284 77.6906 7.54286 78.3989 6.74954C79.1072 5.95623 79.9572 5.55957 80.9489 5.55957C82.0822 5.55957 82.9605 5.89956 83.5271 6.57955C84.1221 7.25953 84.4054 8.16618 84.4054 9.32782V10.0361C84.4054 10.1778 84.2921 10.2911 84.1505 10.2911H78.9372L78.9089 10.3195C78.9372 11.1411 79.1356 11.7928 79.5322 12.3028C79.9289 12.8127 80.4955 13.0961 81.2038 13.0961C81.7138 13.0961 82.1672 13.0111 82.5638 12.8694C82.8755 12.7561 83.1305 12.6144 83.3571 12.4444C83.4705 12.3594 83.6405 12.3878 83.7255 12.5294L84.0655 13.0961C84.1221 13.2094 84.1221 13.3511 84.0088 13.4077C83.7255 13.6344 83.3855 13.8327 82.9605 14.0027C82.4788 14.1727 81.8838 14.286 81.1755 14.286ZM80.9772 6.72121C80.4672 6.72121 80.0139 6.94787 79.6455 7.37286C79.2772 7.79786 79.0506 8.33618 78.9656 8.98783L78.9939 9.01616H82.8755V8.81783C82.8755 8.22285 82.7055 7.71286 82.3938 7.3162C82.0822 6.94787 81.6005 6.72121 80.9772 6.72121Z" fill="white"/>
<path d="M74.3473 6.23969C72.9023 5.07805 70.7207 5.47471 69.1057 6.01303L68.709 6.1547C68.624 6.18303 68.5674 6.26803 68.5674 6.35303C68.5674 8.90297 68.5674 11.4812 68.5674 14.0312C68.5674 14.1445 68.6807 14.2579 68.794 14.2579H69.7857C69.899 14.2579 70.0123 14.1729 70.0123 14.0312C70.0123 11.7646 70.0123 9.49796 70.0123 7.23134C71.1173 6.91968 72.619 6.66469 73.4973 7.373C74.0923 7.85466 74.2056 8.67631 74.2056 9.38463C74.2056 10.9429 74.2056 12.5012 74.2056 14.0312C74.2056 14.1445 74.2906 14.2579 74.4323 14.2579H75.4239C75.5372 14.2579 75.6506 14.1729 75.6506 14.0312C75.6506 12.4729 75.6506 10.9429 75.6506 9.38463C75.5939 8.22298 75.3106 7.00468 74.3473 6.23969Z" fill="white"/>
<path d="M65.839 10.5744V5.78621C65.839 5.70121 65.754 5.61621 65.6124 5.61621H64.5641C64.4507 5.61621 64.3374 5.67288 64.3374 5.78621V14.0594C64.3374 14.1444 64.4507 14.2294 64.5641 14.2294H65.5557C65.669 14.2294 65.839 14.1727 65.839 14.0877V12.0477C65.839 12.0477 65.839 11.2544 65.839 10.5744Z" fill="white"/>
<path d="M65.1024 4.56803C65.5092 4.56803 65.839 4.23822 65.839 3.83138C65.839 3.42454 65.5092 3.09473 65.1024 3.09473C64.6955 3.09473 64.3657 3.42454 64.3657 3.83138C64.3657 4.23822 64.6955 4.56803 65.1024 4.56803Z" fill="white"/>
<path d="M60.7591 10.2911C60.2491 9.83782 59.4842 9.52616 58.4925 9.2995C57.7275 9.12951 57.1892 8.93118 56.8492 8.70452C56.5659 8.50619 56.4242 8.25119 56.4242 7.96786C56.4242 7.62787 56.5659 7.34454 56.8209 7.14622C57.1042 6.91955 57.5292 6.80622 58.0675 6.80622C58.6625 6.80622 59.1158 6.94789 59.4275 7.20288C59.7392 7.45788 59.8525 7.79787 59.8808 8.22286C59.8808 8.36452 59.9941 8.42119 59.9941 8.42119H61.3825C61.3825 8.42119 61.4958 8.39286 61.5241 8.22286C61.5808 7.48621 61.2125 6.83456 60.6175 6.32457C59.9941 5.78624 59.1442 5.53125 58.0959 5.53125C57.1325 5.53125 56.3109 5.75791 55.7159 6.21124C55.0926 6.69289 54.7809 7.28788 54.7809 7.96786C54.7809 8.64785 55.0926 9.2145 55.6592 9.6395C56.2259 10.0645 56.9909 10.3761 57.9825 10.6028C58.7192 10.7728 59.2575 10.9711 59.5408 11.1978C59.7108 11.3395 59.8242 11.4811 59.8808 11.6511C60.0508 12.1044 59.8241 12.6144 59.3708 12.8411C59.0592 13.0111 58.6625 13.0961 58.1525 13.0961C57.5859 13.0961 57.0759 12.9828 56.7076 12.7278C56.3392 12.5011 56.1976 12.1611 56.1692 11.6795C56.1692 11.4811 56.0276 11.4811 56.0276 11.4811H54.7243C54.7243 11.4811 54.5259 11.5095 54.5259 11.7078C54.4976 12.5011 54.8659 13.1811 55.6309 13.6627C56.3676 14.1444 57.2175 14.3711 58.1525 14.3711C59.1442 14.3711 59.9941 14.1444 60.6175 13.7194C61.2691 13.2661 61.6091 12.6711 61.6091 11.9628C61.5808 11.3111 61.2975 10.7445 60.7591 10.2911Z" fill="white"/>
<path d="M52.7975 10.4894C52.7975 8.93114 52.7975 7.40117 52.7975 5.84287C52.7975 5.70121 52.6842 5.61621 52.5709 5.61621H51.5792C51.4376 5.61621 51.3526 5.72954 51.3526 5.84287C51.3526 7.37284 51.3526 8.93114 51.3526 10.4894C51.3526 11.1978 51.2392 12.0194 50.6443 12.5011C50.1059 12.9544 49.3126 12.9544 48.5193 12.8411C47.726 12.7277 47.1593 12.0477 47.1593 11.2828C47.1593 11.0278 47.1593 10.7444 47.1593 10.4894C47.1593 8.93114 47.1593 7.42951 47.1593 5.87121C47.1593 5.72954 47.046 5.64454 46.9327 5.64454H45.941C45.8277 5.64454 45.7144 5.75787 45.7144 5.87121C45.7144 7.5145 45.7144 8.84614 45.7144 10.5178C45.7144 10.7728 45.7144 11.2544 45.7427 11.6794C45.7994 13.0111 46.791 14.1727 48.1226 14.3427C49.4259 14.541 50.6159 14.371 51.4942 13.6627C52.4575 12.8694 52.7409 11.6511 52.7975 10.4894Z" fill="white"/>
<path d="M42.7114 7.96822C42.768 7.91155 42.853 7.85489 42.9097 7.79822C43.5047 7.23157 43.8164 6.43825 43.8164 5.6166C43.8164 3.51998 42.4847 2.5 40.4164 2.5H36.3648C36.2515 2.5 36.1382 2.585 36.1382 2.72666V14.0314C36.1382 14.1448 36.2232 14.2581 36.3648 14.2581H40.4164C42.598 14.2581 44.3547 13.1531 44.3263 10.8015C44.3263 9.52652 43.6464 8.53487 42.7114 7.96822ZM37.5548 3.91664H40.4164C41.6631 3.91664 42.3997 4.31329 42.3714 5.6166C42.3714 6.04159 42.2014 6.46658 41.8897 6.77824C41.4647 7.20323 40.8697 7.3449 40.3031 7.3449H37.5265V3.91664H37.5548ZM40.4164 12.8131H37.5548V8.76153H40.3314C41.5781 8.76153 42.9097 9.41319 42.9097 10.8015C42.9097 12.3315 41.7764 12.8131 40.4164 12.8131Z" fill="white"/>
<path d="M30.1315 2.5H26.0516C25.9383 2.5 25.825 2.585 25.825 2.72666V14.0314C25.825 14.1448 25.9099 14.2581 26.0516 14.2581H30.1315C31.2932 14.2581 32.3698 13.9181 33.1915 13.0681C34.0131 12.2181 34.2681 11.1415 34.2681 9.97984V6.77824C34.2681 5.64493 33.9848 4.53996 33.1915 3.68997C32.3698 2.83999 31.2932 2.5 30.1315 2.5ZM32.8515 9.97984C32.8515 10.7448 32.7098 11.5098 32.1715 12.0765C31.6332 12.6431 30.8965 12.8414 30.1315 12.8414H27.2699V3.91664H30.1315C30.8965 3.91664 31.6332 4.11497 32.1715 4.68162C32.7098 5.24827 32.8515 6.01326 32.8515 6.77824V9.97984Z" fill="white"/>
<path d="M23.2183 2.5H22.2267C22.1133 2.5 22 2.585 22 2.72666V14.0314C22 14.1448 22.085 14.2581 22.2267 14.2581H23.2183C23.3316 14.2581 23.445 14.1731 23.445 14.0314V2.72666C23.445 2.585 23.36 2.5 23.2183 2.5Z" fill="white"/>
</svg>
