<svg width="14" height="14" viewBox="0 0 14 14" fill="none" xmlns="http://www.w3.org/2000/svg">
<path fill-rule="evenodd" clip-rule="evenodd" d="M10.889 1.17971C9.73784 0.410543 8.38447 0 7 0C6.08074 0 5.17049 0.18106 4.32121 0.532843C3.47194 0.884626 2.70026 1.40024 2.05025 2.05025C1.40024 2.70026 0.884625 3.47194 0.532841 4.32121C0.181059 5.17049 0 6.08074 0 7C0 8.38447 0.410543 9.73784 1.17971 10.889C1.94888 12.0401 3.04213 12.9373 4.32121 13.4672C5.6003 13.997 7.00776 14.1356 8.36563 13.8655C9.7235 13.5954 10.9708 12.9287 11.9497 11.9497C12.9287 10.9708 13.5954 9.7235 13.8655 8.36563C14.1356 7.00776 13.997 5.6003 13.4672 4.32121C12.9373 3.04213 12.0401 1.94888 10.889 1.17971ZM10.4612 12.1801C9.43668 12.8646 8.23217 13.23 7 13.23C5.3477 13.23 3.76307 12.5736 2.59472 11.4053C1.42637 10.2369 0.769999 8.6523 0.769999 7C0.769999 5.76782 1.13538 4.56331 1.81994 3.5388C2.5045 2.51428 3.4775 1.71576 4.61588 1.24423C5.75426 0.772696 7.00691 0.649321 8.21541 0.889707C9.42391 1.13009 10.534 1.72344 11.4053 2.59472C12.2766 3.466 12.8699 4.57608 13.1103 5.78459C13.3507 6.99309 13.2273 8.24573 12.7558 9.38411C12.2842 10.5225 11.4857 11.4955 10.4612 12.1801Z" fill="#4D4D4D"/>
<path d="M9.38333 7C9.38333 7.5799 9.86836 8.05 10.4667 8.05C11.065 8.05 11.55 7.5799 11.55 7C11.55 6.4201 11.065 5.95 10.4667 5.95C9.86836 5.95 9.38333 6.4201 9.38333 7Z" fill="#4D4D4D"/>
<path d="M5.91667 7C5.91667 7.5799 6.40169 8.05 7 8.05C7.59831 8.05 8.08333 7.5799 8.08333 7C8.08333 6.4201 7.59831 5.95 7 5.95C6.40169 5.95 5.91667 6.4201 5.91667 7Z" fill="#4D4D4D"/>
<path d="M2.45 7C2.45 7.5799 2.93502 8.05 3.53333 8.05C4.13164 8.05 4.61667 7.5799 4.61667 7C4.61667 6.4201 4.13164 5.95 3.53333 5.95C2.93502 5.95 2.45 6.4201 2.45 7Z" fill="#4D4D4D"/>
</svg>
