<svg width="11" height="7" viewBox="0 0 11 7" fill="none" xmlns="http://www.w3.org/2000/svg">
<path d="M5.70936 6.50966C5.83373 6.50966 5.95436 6.48634 6.07126 6.4397C6.18817 6.39306 6.28517 6.33088 6.36228 6.25315L10.6529 1.96257C10.8239 1.79157 10.9094 1.57393 10.9094 1.30965C10.9094 1.04538 10.8239 0.827741 10.6529 0.65674C10.4819 0.485738 10.2642 0.400238 9.99995 0.400238C9.73567 0.400238 9.51803 0.485738 9.34703 0.65674L5.70936 4.29441L2.0717 0.65674C1.90069 0.485738 1.68305 0.400238 1.41878 0.400238C1.1545 0.400238 0.936868 0.485738 0.765865 0.65674C0.594864 0.827741 0.509362 1.04538 0.509362 1.30965C0.509362 1.57393 0.594864 1.79157 0.765865 1.96257L5.05645 6.25315C5.14972 6.34643 5.25077 6.41265 5.35959 6.45183C5.46841 6.491 5.585 6.51028 5.70936 6.50966Z" fill="#4D4D4D"/>
</svg>
